<?xml version="1.0" encoding="utf-8"?>
<!-- Generator: Adobe Illustrator 27.1.0, SVG Export Plug-In . SVG Version: 6.00 Build 0)  -->
<svg version="1.1" id="Livello_2_00000176730770080012217300000005387203345465923221_"
	 xmlns="http://www.w3.org/2000/svg" xmlns:xlink="http://www.w3.org/1999/xlink" x="0px" y="0px" viewBox="0 0 100 100"
	 style="enable-background:new 0 0 100 100;" xml:space="preserve">
<style type="text/css">
	.st0{fill:none;}
	.st1{enable-background:new    ;}
</style>
<rect x="3.8" y="23.3" class="st0" width="92.4" height="53.4"/>
<g class="st1">
	<path d="M18.3,59.1c1.4,2.2,3.2,3.9,5.4,5.1c2.2,1.2,4.6,1.8,7.2,1.8c2.2,0,4.1-0.3,5.8-0.8c1.7-0.6,3.2-1.3,4.6-2.3
		c1.4-1,2.5-2,3.5-3.1v10.5c-1.9,1.5-3.9,2.6-6.1,3.4c-2.2,0.8-5,1.2-8.3,1.2c-3.5,0-6.7-0.6-9.7-1.7c-3-1.1-5.5-2.8-7.7-4.9
		c-2.2-2.1-3.9-4.6-5.1-7.5c-1.2-2.9-1.8-6.1-1.8-9.6s0.6-6.7,1.8-9.6c1.2-2.9,2.9-5.4,5.1-7.5c2.2-2.1,4.8-3.7,7.7-4.9
		c3-1.1,6.2-1.7,9.7-1.7c3.3,0,6.1,0.4,8.3,1.2c2.2,0.8,4.2,2,6.1,3.4v10.5c-1-1.1-2.2-2.2-3.5-3.1c-1.4-1-2.9-1.7-4.6-2.3
		c-1.7-0.6-3.6-0.8-5.8-0.8c-2.6,0-5,0.6-7.2,1.8c-2.2,1.2-4,2.9-5.4,5.1c-1.4,2.2-2,4.8-2,7.9C16.2,54.3,16.9,56.9,18.3,59.1z"/>
	<path d="M83.5,28.5h10.8L71.2,76.7L48.1,28.5h10.7l12.4,29.6L83.5,28.5z"/>
</g>
</svg>
