<?xml version="1.0" encoding="utf-8"?>
<!-- Generator: Adobe Illustrator 27.1.0, SVG Export Plug-In . SVG Version: 6.00 Build 0)  -->
<svg version="1.1" id="Livello_2_00000022548319076091540810000002710835337669385635_"
	 xmlns="http://www.w3.org/2000/svg" xmlns:xlink="http://www.w3.org/1999/xlink" x="0px" y="0px" viewBox="0 0 100 100"
	 style="enable-background:new 0 0 100 100;" xml:space="preserve">
<style type="text/css">
	.st0{enable-background:new    ;}
	.st1{stroke:#000000;stroke-width:2.8346;stroke-miterlimit:10;}
</style>
<g class="st0">
	<path d="M37.1,57.5c0.6,1,1.3,1.7,2.3,2.3c1,0.5,2,0.8,3.1,0.8c0.9,0,1.7-0.1,2.4-0.3c0.7-0.3,1.3-0.5,1.9-1c0.5-0.3,1-0.9,1.5-1.3
		v3.7c-0.8,0.6-1.6,1.1-2.4,1.4c-0.9,0.3-2,0.5-3.3,0.5s-2.6-0.3-3.8-0.7c-1.1-0.4-2.2-1.1-3.1-1.9c-0.9-0.9-1.5-1.8-2-3.1
		c-0.4-1.1-0.7-2.4-0.7-3.8c0-1.4,0.3-2.7,0.7-3.8c0.4-1.1,1.1-2.2,2-3c0.9-0.9,1.8-1.5,3.1-1.9c1.1-0.4,2.4-0.7,3.8-0.7
		s2.4,0.2,3.3,0.5c0.9,0.3,1.7,0.8,2.4,1.5v3.7c-0.4-0.5-0.9-1-1.5-1.3c-0.5-0.3-1.2-0.7-1.9-1c-0.7-0.3-1.5-0.3-2.4-0.3
		c-1.1,0-2.2,0.3-3.1,0.8c-1,0.5-1.7,1.3-2.3,2.3c-0.6,1-0.9,2.1-0.9,3.4C36.2,55.4,36.5,56.5,37.1,57.5z"/>
	<path d="M64,44.9h3.6l-9,19.4l-8.9-19.4h3.6l5.4,12.9L64,44.9z"/>
</g>
<path class="st1" d="M71.4,18.9h-33L25.6,31.7V78c0,1.6,1.2,3,2.8,3h43c1.6,0,3-1.2,3-3V21.7C74.3,20.1,73,18.9,71.4,18.9z
	 M71.3,77.9H28.5V32.5h10.6V21.8h32.3V77.9z"/>
</svg>
