<?xml version="1.0" encoding="utf-8"?>
<!-- Generator: Adobe Illustrator 27.1.0, SVG Export Plug-In . SVG Version: 6.00 Build 0)  -->
<svg version="1.1" id="Livello_2_00000022548319076091540810000002710835337669385635_"
	 xmlns="http://www.w3.org/2000/svg" xmlns:xlink="http://www.w3.org/1999/xlink" x="0px" y="0px" viewBox="0 0 100 100"
	 style="enable-background:new 0 0 100 100;" xml:space="preserve">
<path d="M81,60V35.3c0-5.5-4.5-10-10-10H28.9c-5.5,0-10,4.5-10,10V60c0,8.1,6.6,14.7,14.7,14.7h32.7C74.5,74.7,81.1,68.1,81,60
	L81,60z M69.5,31.9L53.2,50.5c-0.8,1-2,1.5-3.2,1.5s-2.4-0.5-3.2-1.5L30.5,31.9H69.5z M74.5,59.9c0,4.5-3.6,8.1-8.1,8.1H33.7
	c-4.5,0-8.1-3.6-8.1-8.1V36.2l16.3,18.7c2.1,2.4,5.1,3.7,8.2,3.7s6.1-1.4,8.2-3.7l16.3-18.7V59.9z"/>
</svg>
