<?xml version="1.0" encoding="utf-8"?>
<!-- Generator: Adobe Illustrator 27.1.0, SVG Export Plug-In . SVG Version: 6.00 Build 0)  -->
<svg version="1.1" id="Livello_2_00000122695618074082048450000018434588375181410714_"
	 xmlns="http://www.w3.org/2000/svg" xmlns:xlink="http://www.w3.org/1999/xlink" x="0px" y="0px" viewBox="0 0 100 100"
	 style="enable-background:new 0 0 100 100;" xml:space="preserve">
<path d="M76.3,50.2v23H65.5V53.8c0-3.6-1.3-7-5.8-7c-4.6,0-6.6,3.3-6.6,7.4v18.9H42.3V38h10.4v5h0.1c2.6-3.6,6.8-5.7,11.2-5.7
	C72.3,37.3,76.3,42.9,76.3,50.2z"/>
<rect x="24.7" y="38" width="10.8" height="35.2"/>
<path d="M36.4,26.9L36.4,26.9L36.4,26.9c0,3.5-2.8,6.3-6.3,6.4h0c-3.5,0-6.3-2.8-6.3-6.3c0-3.5,2.8-6.3,6.3-6.4
	C33.5,20.6,36.3,23.4,36.4,26.9z"/>
</svg>
