<?xml version="1.0" encoding="utf-8"?>
<!-- Generator: Adobe Illustrator 27.1.0, SVG Export Plug-In . SVG Version: 6.00 Build 0)  -->
<svg version="1.1" id="Livello_2_00000176730770080012217300000005387203345465923221_"
	 xmlns="http://www.w3.org/2000/svg" xmlns:xlink="http://www.w3.org/1999/xlink" x="0px" y="0px" viewBox="0 0 100 100"
	 style="enable-background:new 0 0 100 100;" xml:space="preserve">
<path d="M50.3,18.7c-17,0-30.9,13.8-30.9,30.9c0,5.2,1.3,10.3,3.9,14.9l-4.5,16.7l16.8-4.5c4.5,2.5,9.6,3.7,14.7,3.7v0
	c17,0,30.9-13.8,30.9-30.9C81.2,32.6,67.3,18.7,50.3,18.7z M50.3,74.7c-4.5,0-8.9-1.2-12.8-3.5l-1.1-0.6L27.1,73l2.5-9.3l-0.7-1.1
	c-2.4-3.9-3.7-8.4-3.7-13c0-13.8,11.2-25,25-25h0c13.8,0,25,11.2,25,25S64.1,74.7,50.3,74.7z"/>
<path d="M65,59.1L65,59.1c-0.9,2.3-3.2,3.7-5.6,4.2c-2.2,0.4-4.1-0.3-6.2-1c-1.8-0.6-3.6-1.5-5.3-2.5c-3.3-2-6.2-4.8-8.5-7.9
	c-0.7-1-1.4-1.9-2-3c-0.8-1.4-1.5-2.8-1.9-4.3c-0.1-0.6-0.2-1.3-0.2-2c0-2.3,0.9-4.7,2.7-6.2c1.1-0.9,2.6-1.2,3.8-0.6
	c1.3,0.7,2,2.6,2.6,3.9c0.5,1,1,2.4,0.8,3.5c-0.2,1.1-1.1,2.1-1.8,2.9c-0.5,0.6-0.6,1.1-0.2,1.7c2.4,4,5.7,6.9,10,8.6
	c0.6,0.2,1,0.2,1.4-0.3c0.8-0.9,1.5-2.7,2.6-3.2c1.5-0.6,3.2,0.2,4.4,1c1.2,0.7,3.2,1.6,3.5,3C65.4,57.7,65.3,58.4,65,59.1z"/>
</svg>
